<svg id="Layer_1" data-name="Layer 1" xmlns="http://www.w3.org/2000/svg" xmlns:xlink="http://www.w3.org/1999/xlink" viewBox="0 0 100 100"><defs><style>.cls-1{fill:none;}.cls-2{clip-path:url(#clip-path);}.cls-3{fill:#fff;}</style><clipPath id="clip-path"><rect class="cls-1" width="100.65" height="100.65" rx="13.97"/></clipPath></defs><g class="cls-2"><path d="M-2.89-5H103.83a1.81,1.81,0,0,1,1.81,1.81V103.56a1.81,1.81,0,0,1-1.81,1.81H-2.87a1.81,1.81,0,0,1-1.8-1.81V-3.21h0A1.79,1.79,0,0,1-2.89-5ZM23.45,81.47a11.23,11.23,0,0,0,1.37.23q19.09,0,38.2,0a6.86,6.86,0,0,0,6.54-4.06c1.3-2.64.68-5-1-7.32C65,65.65,61.57,61,58.09,56.26c-1.36-1.83-2.7-3.68-4-5.49L65.53,35.24l-.26-.49c-1.58,0-3.18.11-4.75,0a3.15,3.15,0,0,0-3.17,1.58c-2.45,3.48-5,6.86-7.64,10.36-.21-.25-.33-.37-.43-.51q-6.42-8.62-12.8-17.28c-.39-.53-.85-1.53-.62-1.87a2.64,2.64,0,0,1,1.94-.8c9.84-.05,19.68,0,29.52,0,5.24,0,5.25,0,8.23-4.33A4.38,4.38,0,0,0,76,20.76a4.25,4.25,0,0,0-1.13-.32c-12.6,0-25.19,0-37.79,0a7.08,7.08,0,0,0-6.73,4c-1.32,2.67-.77,5.14,1,7.45s3.36,4.49,5,6.75l9.44,12.75L34.31,67l.32.41c2.1,0,4.21,0,6.31,0,.32,0,.7-.38.93-.68,1.28-1.68,2.53-3.39,3.79-5.08l4.5-6.07,2.4,3.21c3.69,5,7.4,10,11.06,15,.3.42.59,1.22.4,1.54s-1,.63-1.57.84a3.07,3.07,0,0,1-1,0H28.8c-.49,0-1.19,0-1.43.23C26.07,77.9,24.88,79.57,23.45,81.47Z"/><path class="cls-3" d="M-4.72-5c0,.6,0,1.2,0,1.79V105.37H105.64a4.88,4.88,0,0,1-1.1.26H-5Q-5,51-5-3.75A6.18,6.18,0,0,1-4.72-5Z"/><path class="cls-3" d="M23.45,81.47c1.43-1.9,2.62-3.57,3.92-5.14.24-.28.94-.23,1.43-.23H61.49a3.07,3.07,0,0,0,1,0c.56-.21,1.29-.4,1.57-.84s-.1-1.12-.4-1.54c-3.66-5-7.37-10-11.06-15l-2.4-3.21-4.5,6.07c-1.26,1.69-2.51,3.4-3.79,5.08-.23.3-.61.67-.93.68-2.1.06-4.21,0-6.31,0L34.31,67,45.79,51.43,36.35,38.68c-1.67-2.26-3.31-4.53-5-6.75s-2.33-4.78-1-7.45a7.08,7.08,0,0,1,6.73-4c12.6-.05,25.19,0,37.79,0a4.25,4.25,0,0,1,1.13.32,4.38,4.38,0,0,1-.41,1.08c-3,4.33-3,4.33-8.23,4.33-9.84,0-19.68,0-29.52,0a2.64,2.64,0,0,0-1.94.8c-.23.34.23,1.34.62,1.87q6.36,8.67,12.8,17.28c.1.14.22.26.43.51,2.6-3.5,5.19-6.88,7.64-10.36a3.15,3.15,0,0,1,3.17-1.58c1.57.14,3.17,0,4.75,0l.26.49L54.06,50.77c1.33,1.81,2.67,3.66,4,5.49C61.57,61,65,65.65,68.54,70.31c1.7,2.28,2.32,4.68,1,7.32A6.86,6.86,0,0,1,63,81.69q-19.1,0-38.2,0A11.23,11.23,0,0,1,23.45,81.47Z"/></g></svg>